<svg width="9" height="15" viewBox="0 0 9 15" fill="none" xmlns="http://www.w3.org/2000/svg">
<path id="Vector" d="M7.23525 4.0657L7.23525 10.7057C7.23525 12.0174 6.13794 13.1848 4.64617 13.3103C4.24776 13.3447 3.84556 13.3056 3.46544 13.1957C3.08532 13.0858 2.73571 12.9075 2.43913 12.6722C2.14254 12.4369 1.90554 12.1498 1.7434 11.8295C1.58125 11.5092 1.49755 11.1628 1.49767 10.8124L1.49767 3.05525C1.49767 2.23309 2.17184 1.48624 3.10419 1.40465C3.35423 1.38177 3.60698 1.40516 3.84602 1.4733C4.08506 1.54144 4.30505 1.65281 4.49171 1.80018C4.67838 1.94755 4.82754 2.12762 4.92952 2.3287C5.0315 2.52979 5.08401 2.74739 5.08366 2.96739L5.08366 9.55723C5.08366 9.90241 4.76092 10.1848 4.36646 10.1848C3.972 10.1848 3.64926 9.90241 3.64926 9.55723L3.64926 4.0657C3.64926 3.80838 3.40542 3.59499 3.11137 3.59499C2.81732 3.59499 2.57347 3.80838 2.57347 4.0657L2.57347 9.46937C2.57347 10.2915 3.24763 11.0384 4.17999 11.12C4.43003 11.1428 4.68277 11.1195 4.92181 11.0513C5.16085 10.9832 5.38084 10.8718 5.56751 10.7244C5.75417 10.5771 5.90334 10.397 6.00531 10.1959C6.10729 9.99483 6.15981 9.77723 6.15945 9.55723L6.15945 3.07408C6.15945 1.76239 5.06214 0.595044 3.57037 0.469523C3.17186 0.434678 2.76942 0.473367 2.38906 0.58309C2.0087 0.692813 1.65886 0.871131 1.36215 1.10653C1.06544 1.34192 0.828452 1.62916 0.666491 1.9497C0.50453 2.27023 0.421199 2.61692 0.421879 2.96739L0.421879 10.6681C0.421879 12.4693 1.92799 14.0823 3.97917 14.2517C4.52747 14.2986 5.0809 14.2445 5.60387 14.093C6.12685 13.9414 6.60781 13.6958 7.01581 13.3719C7.42381 13.0479 7.74982 12.6529 7.97289 12.2121C8.19596 11.7713 8.31115 11.2945 8.31104 10.8124V4.0657C8.31104 3.80838 8.06719 3.59499 7.77314 3.59499C7.47909 3.59499 7.23525 3.80838 7.23525 4.0657Z" fill="#303030" fill-opacity="0.5"/>
</svg>
