<svg width="22" height="16" viewBox="0 0 22 16" fill="none" xmlns="http://www.w3.org/2000/svg">
<g id="Group">
<path id="Vector" fill-rule="evenodd" clip-rule="evenodd" d="M12.8008 0.799805H4.40078C3.446 0.799805 2.53033 1.17909 1.8552 1.85422C1.18007 2.52935 0.800781 3.44503 0.800781 4.3998V11.5998C0.800781 12.5546 1.18007 13.4703 1.8552 14.1454C2.53033 14.8205 3.446 15.1998 4.40078 15.1998H12.8008C13.7556 15.1998 14.6712 14.8205 15.3464 14.1454C16.0215 13.4703 16.4008 12.5546 16.4008 11.5998V4.3998C16.4008 3.44503 16.0215 2.52935 15.3464 1.85422C14.6712 1.17909 13.7556 0.799805 12.8008 0.799805ZM3.20078 4.3998C3.20078 4.08154 3.32721 3.77632 3.55225 3.55128C3.7773 3.32623 4.08252 3.1998 4.40078 3.1998H12.8008C13.119 3.1998 13.4243 3.32623 13.6493 3.55128C13.8744 3.77632 14.0008 4.08154 14.0008 4.3998V11.5998C14.0008 11.9181 13.8744 12.2233 13.6493 12.4483C13.4243 12.6734 13.119 12.7998 12.8008 12.7998H4.40078C4.08252 12.7998 3.7773 12.6734 3.55225 12.4483C3.32721 12.2233 3.20078 11.9181 3.20078 11.5998V4.3998Z" fill="#F8F8F8"/>
<path id="Vector_2" fill-rule="evenodd" clip-rule="evenodd" d="M19.3224 2.2112L15.1608 5.0684C15.0018 5.17756 14.8714 5.32345 14.7808 5.49369C14.6901 5.66394 14.6418 5.85353 14.64 6.0464L14.6016 9.9044C14.5997 10.1011 14.6463 10.2953 14.7371 10.4698C14.8279 10.6443 14.9602 10.7939 15.1224 10.9052L19.3224 13.7888C19.5026 13.9125 19.7131 13.9846 19.9313 13.9975C20.1495 14.0103 20.367 13.9632 20.5604 13.8615C20.7538 13.7597 20.9158 13.6071 21.0288 13.42C21.1418 13.2329 21.2015 13.0185 21.2016 12.8V3.2C21.2015 2.98145 21.1418 2.76708 21.0288 2.58001C20.9158 2.39295 20.7538 2.2403 20.5604 2.13853C20.367 2.03676 20.1495 1.98974 19.9313 2.00255C19.7131 2.01536 19.5026 2.0875 19.3224 2.2112ZM18.8016 10.52L17.0076 9.2888L17.034 6.6932L18.8016 5.48V10.52Z" fill="#F8F8F8"/>
</g>
</svg>
