<svg width="24" height="24" viewBox="0 0 24 24" fill="none" xmlns="http://www.w3.org/2000/svg">
<g id="ri:copyright-fill">
<path id="Vector" d="M12 2C17.52 2 22 6.48 22 12C22 17.52 17.52 22 12 22C6.48 22 2 17.52 2 12C2 6.48 6.48 2 12 2ZM12 7C9.24 7 7 9.24 7 12C7 14.76 9.24 17 12 17C12.8636 17 13.7124 16.7764 14.4639 16.3509C15.2153 15.9254 15.8438 15.3125 16.288 14.572L14.573 13.544C14.3031 13.9936 13.9201 14.3646 13.4621 14.6201C13.0041 14.8755 12.4871 15.0064 11.9627 14.9998C11.4384 14.9931 10.9249 14.8491 10.4735 14.5821C10.0222 14.3152 9.64868 13.9345 9.39029 13.4782C9.13189 13.0219 8.99763 12.5058 9.00089 11.9814C9.00414 11.457 9.1448 10.9426 9.40885 10.4895C9.67289 10.0364 10.0511 9.66045 10.5057 9.3991C10.9604 9.13775 11.4756 9.00014 12 9C13.093 9 14.05 9.584 14.573 10.457L16.288 9.427C15.8437 8.68664 15.2152 8.07396 14.4637 7.64864C13.7123 7.22332 12.8635 6.99985 12 7Z" fill="#333333"/>
</g>
</svg>
