<svg width="24" height="24" viewBox="0 0 24 24" fill="none" xmlns="http://www.w3.org/2000/svg">
<g id="ic:baseline-call-end" clip-path="url(#clip0_1739_5823)">
<path id="Vector" d="M12.0001 9C10.4001 9 8.8501 9.25 7.4001 9.72V12.82C7.4001 13.21 7.1701 13.56 6.8401 13.72C5.8601 14.21 4.9701 14.84 4.1801 15.57C4.0001 15.75 3.7501 15.85 3.4801 15.85C3.2001 15.85 2.9501 15.74 2.7701 15.56L0.290103 13.08C0.196614 12.9892 0.122663 12.8803 0.0727937 12.76C0.0229239 12.6396 -0.00181253 12.5103 0.000103363 12.38C0.000103363 12.1 0.110103 11.85 0.290103 11.67C3.3401 8.78 7.4601 7 12.0001 7C16.5401 7 20.6601 8.78 23.7101 11.67C23.8901 11.85 24.0001 12.1 24.0001 12.38C24.0001 12.66 23.8901 12.91 23.7101 13.09L21.2301 15.57C21.0501 15.75 20.8001 15.86 20.5201 15.86C20.2501 15.86 20.0001 15.75 19.8201 15.58C19.0241 14.8376 18.1248 14.2145 17.1501 13.73C16.9815 13.6479 16.8395 13.5199 16.7404 13.3607C16.6414 13.2015 16.5893 13.0175 16.5901 12.83V9.73C15.1501 9.25 13.6001 9 12.0001 9Z" fill="#FBFBFB"/>
</g>
<defs>
<clipPath id="clip0_1739_5823">
<rect width="24" height="24" fill="white"/>
</clipPath>
</defs>
</svg>
