<svg width="24" height="24" viewBox="0 0 24 24" fill="none" xmlns="http://www.w3.org/2000/svg">
<g id="fluent-mdl2:hands-free">
<path id="Vector" d="M18.75 3C19.0625 3 19.3555 3.05859 19.6289 3.17578C19.9023 3.29297 20.1406 3.45312 20.3438 3.65625C20.5469 3.85938 20.707 4.09766 20.8242 4.37109C20.9414 4.64453 21 4.9375 21 5.25V15.75C21 16.6797 20.8242 17.5547 20.4727 18.375C20.1211 19.1953 19.6367 19.9102 19.0195 20.5195C18.4023 21.1289 17.6875 21.6094 16.875 21.9609C16.0625 22.3125 15.1875 22.4922 14.25 22.5C13.125 22.5 12.0781 22.2852 11.1094 21.8555C10.1406 21.4258 9.25781 20.8164 8.46094 20.0273L2.92969 14.4961C2.71094 14.2773 2.54297 14.0234 2.42578 13.7344C2.30859 13.4453 2.25 13.1484 2.25 12.8438C2.25 12.5156 2.3125 12.2109 2.4375 11.9297C2.5625 11.6484 2.73047 11.3984 2.94141 11.1797C3.15234 10.9609 3.39844 10.7969 3.67969 10.6875C3.96094 10.5781 4.26562 10.5156 4.59375 10.5C4.90625 10.5 5.20312 10.5586 5.48438 10.6758C5.76562 10.793 6.01953 10.9648 6.24609 11.1914L7.5 12.4336V3.75C7.5 3.4375 7.55859 3.14453 7.67578 2.87109C7.79297 2.59766 7.95312 2.35938 8.15625 2.15625C8.35938 1.95312 8.59766 1.79297 8.87109 1.67578C9.14453 1.55859 9.4375 1.5 9.75 1.5C10.0391 1.5 10.3164 1.55469 10.582 1.66406C10.6445 1.42188 10.7461 1.19922 10.8867 0.996094C11.0273 0.792969 11.1914 0.617188 11.3789 0.46875C11.5664 0.320312 11.7812 0.207031 12.0234 0.128906C12.2656 0.0507812 12.5078 0.0078125 12.75 0C13 0 13.2422 0.0390625 13.4766 0.117188C13.7109 0.195312 13.9219 0.3125 14.1094 0.46875C14.2969 0.625 14.4648 0.800781 14.6133 0.996094C14.7617 1.19141 14.8633 1.41406 14.918 1.66406C15.1836 1.55469 15.4609 1.5 15.75 1.5C16 1.5 16.2422 1.53906 16.4766 1.61719C16.7109 1.69531 16.9219 1.8125 17.1094 1.96875C17.2969 2.125 17.4648 2.30078 17.6133 2.49609C17.7617 2.69141 17.8633 2.91406 17.918 3.16406C18.1836 3.05469 18.4609 3 18.75 3ZM19.5 5.25C19.5 5.04688 19.4258 4.87109 19.2773 4.72266C19.1289 4.57422 18.9531 4.5 18.75 4.5C18.5469 4.5 18.3711 4.57422 18.2227 4.72266C18.0742 4.87109 18 5.04688 18 5.25V10.5C18 10.7031 17.9258 10.8789 17.7773 11.0273C17.6289 11.1758 17.4531 11.25 17.25 11.25C17.0469 11.25 16.8711 11.1758 16.7227 11.0273C16.5742 10.8789 16.5 10.7031 16.5 10.5V3.75C16.5 3.54688 16.4258 3.37109 16.2773 3.22266C16.1289 3.07422 15.9531 3 15.75 3C15.5469 3 15.3711 3.07422 15.2227 3.22266C15.0742 3.37109 15 3.54688 15 3.75V9.75C15 9.95312 14.9258 10.1289 14.7773 10.2773C14.6289 10.4258 14.4531 10.5 14.25 10.5C14.0469 10.5 13.8711 10.4258 13.7227 10.2773C13.5742 10.1289 13.5 9.95312 13.5 9.75V2.25C13.5 2.04688 13.4258 1.87109 13.2773 1.72266C13.1289 1.57422 12.9531 1.5 12.75 1.5C12.5469 1.5 12.3711 1.57422 12.2227 1.72266C12.0742 1.87109 12 2.04688 12 2.25V9.75C12 9.95312 11.9258 10.1289 11.7773 10.2773C11.6289 10.4258 11.4531 10.5 11.25 10.5C11.0469 10.5 10.8711 10.4258 10.7227 10.2773C10.5742 10.1289 10.5 9.95312 10.5 9.75V3.75C10.5 3.54688 10.4258 3.37109 10.2773 3.22266C10.1289 3.07422 9.95312 3 9.75 3C9.54688 3 9.37109 3.07422 9.22266 3.22266C9.07422 3.37109 9 3.54688 9 3.75V12.9727C9 13.1523 8.96875 13.3164 8.90625 13.4648C8.84375 13.6133 8.75391 13.75 8.63672 13.875C8.51953 14 8.38281 14.0898 8.22656 14.1445C8.07031 14.1992 7.90625 14.2344 7.73438 14.25C7.5625 14.25 7.39844 14.2188 7.24219 14.1562C7.08594 14.0938 6.94141 14 6.80859 13.875L5.17969 12.2461C5.01562 12.082 4.82031 12 4.59375 12C4.36719 12 4.17188 12.082 4.00781 12.2461C3.84375 12.4102 3.75781 12.6094 3.75 12.8438C3.75 13.0703 3.83203 13.2656 3.99609 13.4297L9.52734 18.9727C10.1836 19.6289 10.9023 20.1289 11.6836 20.4727C12.4648 20.8164 13.3203 20.9922 14.25 21C14.9766 21 15.6562 20.8633 16.2891 20.5898C16.9219 20.3164 17.4766 19.9414 17.9531 19.4648C18.4297 18.9883 18.8047 18.4336 19.0781 17.8008C19.3516 17.168 19.4922 16.4844 19.5 15.75V5.25Z" fill="#F8F8F8"/>
</g>
</svg>
