<svg width="20" height="21" viewBox="0 0 20 21" fill="none" xmlns="http://www.w3.org/2000/svg">
<g id="mdi:location">
<path id="Vector" d="M9.99935 10.0832C9.44682 10.0832 8.91691 9.86368 8.52621 9.47298C8.13551 9.08228 7.91602 8.55237 7.91602 7.99984C7.91602 7.4473 8.13551 6.9174 8.52621 6.5267C8.91691 6.136 9.44682 5.9165 9.99935 5.9165C10.5519 5.9165 11.0818 6.136 11.4725 6.5267C11.8632 6.9174 12.0827 7.4473 12.0827 7.99984C12.0827 8.27342 12.0288 8.54433 11.9241 8.79709C11.8194 9.04986 11.6659 9.27952 11.4725 9.47298C11.279 9.66643 11.0494 9.81989 10.7966 9.92459C10.5438 10.0293 10.2729 10.0832 9.99935 10.0832ZM9.99935 2.1665C8.45225 2.1665 6.96852 2.78109 5.87456 3.87505C4.7806 4.96901 4.16602 6.45274 4.16602 7.99984C4.16602 12.3748 9.99935 18.8332 9.99935 18.8332C9.99935 18.8332 15.8327 12.3748 15.8327 7.99984C15.8327 6.45274 15.2181 4.96901 14.1241 3.87505C13.0302 2.78109 11.5464 2.1665 9.99935 2.1665Z" fill="#333333"/>
</g>
</svg>
