<svg width="24" height="24" viewBox="0 0 24 24" fill="none" xmlns="http://www.w3.org/2000/svg">
<g id="fluent:share-screen-start-28-filled">
<path id="Vector" d="M3.64342 4.28467C3.13193 4.28467 2.64139 4.48786 2.27971 4.84953C1.91803 5.21121 1.71484 5.70175 1.71484 6.21324V17.7847C1.71473 18.038 1.76453 18.2889 1.8614 18.523C1.95827 18.757 2.10031 18.9698 2.27941 19.1489C2.4585 19.3281 2.67114 19.4702 2.90518 19.5672C3.13923 19.6642 3.39008 19.7141 3.64342 19.7141H20.3577C20.8692 19.7141 21.3597 19.5109 21.7214 19.1492C22.0831 18.7876 22.2863 18.297 22.2863 17.7855V6.2141C22.2863 5.70261 22.0831 5.21207 21.7214 4.85039C21.3597 4.48871 20.8692 4.28553 20.3577 4.28553L3.64342 4.28467ZM12.4531 7.57695L15.2431 10.367C15.3602 10.4883 15.4249 10.6507 15.4234 10.8192C15.4218 10.9878 15.3541 11.149 15.2349 11.2681C15.1156 11.3873 14.9544 11.4548 14.7858 11.4562C14.6172 11.4576 14.4549 11.3927 14.3337 11.2755L12.6417 9.58352V15.9667C12.6417 16.1372 12.574 16.3007 12.4534 16.4212C12.3329 16.5418 12.1693 16.6095 11.9988 16.6095C11.8283 16.6095 11.6648 16.5418 11.5443 16.4212C11.4237 16.3007 11.356 16.1372 11.356 15.9667V9.58524L9.66742 11.2755C9.60814 11.337 9.53723 11.386 9.45881 11.4197C9.3804 11.4534 9.29605 11.4712 9.2107 11.472C9.12534 11.4728 9.04068 11.4565 8.96166 11.4242C8.88264 11.392 8.81084 11.3443 8.75045 11.2839C8.69007 11.2236 8.6423 11.1518 8.60994 11.0728C8.57758 10.9939 8.56127 10.9092 8.56197 10.8239C8.56267 10.7385 8.58037 10.6541 8.61402 10.5757C8.64768 10.4972 8.69662 10.4263 8.75799 10.367L11.5437 7.57781C11.6034 7.51807 11.6743 7.47068 11.7523 7.43835C11.8303 7.40602 11.914 7.38938 11.9984 7.38938C12.0829 7.38938 12.1665 7.40602 12.2445 7.43835C12.3225 7.47068 12.3934 7.51722 12.4531 7.57695Z" fill="#F8F8F8"/>
</g>
</svg>
